# xmcd CD database file
#
# Track frame offsets:
#	150
#	14397
#	25897
#	37567
#	61142
#	65832
#	71925
#	79125
#	85142
#	98617
#	112087
#	120750
#	123940
#	132045
#	140755
#	152232
#	160127
#	177065
#	188705
#	203342
#	219467
#	238000
#	246692
#	266192
#
# Disc length: 3646 seconds
#
# Revision: 1
# Processed by: cddbd v1.5.1PL0 Copyright (c) Steve Scherf et al.
# Submitted via: CDex 1.51
#
DISCID=4c0e3c18
DTITLE=PASCAL ROGE(Piano) - 3つのジムノペディ／サティ：ピアノ作品集
DYEAR=1993
DGENRE=Classical
TTITLE0=ジムノペディ 第1番
TTITLE1=ジムノペディ 第2番
TTITLE2=ジムノペディ 第3番
TTITLE3=おまえが欲しい
TTITLE4=4つのしまりのない前奏曲(犬のための)_1_内奥の声
TTITLE5=4つのしまりのない前奏曲(犬のための)_2_犬儒学派的牧歌
TTITLE6=4つのしまりのない前奏曲(犬のための)_3_犬の歌
TTITLE7=4つのしまりのない前奏曲(犬のための)_4_友情をもって
TTITLE8=あやなす前奏曲
TTITLE9=4番目の夜想曲(ノクチュルヌ)
TTITLE10=古い金貨と古い鎧_1_金商人の家(13世紀のヴェニス)
TTITLE11=古い金貨と古い鎧_2_鎧の踊り(ギリシャ時代)
TTITLE12=古い金貨と古い鎧_3_蛮族サンブリの敗北(悪夢)
TTITLE13=ひからびた胎児_1_ナマコの退治
TTITLE14=ひからびた胎児_2_甲殻類の退治
TTITLE15=ひからびた胎児_1_柄眼類の胎児
TTITLE16=グノシエンヌ 第1番
TTITLE17=グノシエンヌ 第2番
TTITLE18=グノシエンヌ 第3番
TTITLE19=グノシエンヌ 第4番
TTITLE20=グノシエンヌ 第5番
TTITLE21=グノシエンヌ 第6番
TTITLE22=官僚的なソナチネ
TTITLE23=ピカデリー
EXTD=YEAR: 1993
EXTT0=
EXTT1=
EXTT2=
EXTT3=
EXTT4=
EXTT5=
EXTT6=
EXTT7=
EXTT8=
EXTT9=
EXTT10=
EXTT11=
EXTT12=
EXTT13=
EXTT14=
EXTT15=
EXTT16=
EXTT17=
EXTT18=
EXTT19=
EXTT20=
EXTT21=
EXTT22=
EXTT23=
PLAYORDER=
